:FULLY-SPECIFIED
:FORCE-ALL-JOINTS-BE-3DOF
:DEGREES
849
root 3.87225 16.3019 28.1657 -9.40199 6.97598 359.57
lfemur -22.7616 0.671015 -17.7494
ltibia 37.3268 0 0
lfoot -7.70733 -12.916 0
ltoes 2.10976 0 0
rfemur -35.7359 -3.19006 0.632151
rtibia 106.701 0 0
rfoot 36.2897 21.5875 0
rtoes -4.26317 0 0
lowerback 4.27397 2.98959 -3.03709
upperback 1.08861 3.85776 0.278053
thorax -1.49183 1.93759 1.76551
lowerneck -6.31932 -3.76758 2.46624
upperneck 9.0031 -5.44596 1.33737
head 4.04121 -2.53936 -0.284723
lclavicle -3.26255e-14 7.55382e-15 0
lhumerus -50.4128 -10.5342 84.1033
lradius 55.7645 0 0
lwrist 21.0421 0 0
lhand -2.86005 3.53525 0
lfingers 7.12502 0 0
lthumb 22.8483 32.2018 0
rclavicle -3.26255e-14 7.55382e-15 0
rhumerus -38.7405 14.4239 -66.364
rradius 50.804 0 0
rwrist 9.62928 0 0
rhand -36.7033 -33.3678 0
rfingers 7.12502 0 0
rthumb -9.78842 -783.12 0
850
root 3.88177 16.3177 28.2473 -9.71043 7.62818 -0.431891
lfemur -22.1604 1.07062 -17.8611
ltibia 37.2393 -0 0
lfoot -7.62504 -13.775 -0.00929253
ltoes 3.43684 -0 0
rfemur -37.2757 -3.42753 1.27292
rtibia 102.702 -0 0
rfoot 34.1672 20.5116 0.309165
rtoes -5.28632 0 0
lowerback 4.84478 2.7011 -3.11595
upperback 1.2912 3.45016 0.191664
thorax -1.57035 1.73544 1.7582
lowerneck -6.35563 -3.72908 2.46431
upperneck 8.8898 -5.40633 1.4779
head 4.01304 -2.51469 -0.235624
lclavicle -3.26255e-14 7.55382e-15 0
lhumerus -49.487 -11.373 83.9947
lradius 55.8771 -0 0
lwrist 21.1652 0 0
lhand -2.10393 3.56888 0.00333959
lfingers 7.12502 -0 0
lthumb 23.5705 32.1125 -0.00847138
rclavicle -3.26255e-14 7.55382e-15 0
rhumerus -39.3273 13.1978 -65.414
rradius 50.8881 -0 0
rwrist 9.12706 0 0
rhand -34.6548 -33.1487 0.0602262
rfingers 7.12502 -0 0
rthumb -7.81299 -62.8415 0.0736951
851
root 3.89129 16.3335 28.3288 -10.0194 8.28036 -0.437333
lfemur -21.5598 1.47138 -17.9685
ltibia 37.1519 -0 0
lfoot -7.54261 -14.6339 -0.0173503
ltoes 4.76393 -0 0
rfemur -38.8185 -3.64771 1.92002
rtibia 98.7026 -0 0
rfoot 32.0392 19.4249 0.578219
rtoes -6.30946 0 0
lowerback 5.41586 2.41342 -3.19766
upperback 1.49433 3.04287 0.103868
thorax -1.64885 1.53327 1.75117
lowerneck -6.39193 -3.69058 2.46235
upperneck 8.7766 -5.36642 1.61833
head 3.98489 -2.49 -0.186539
lclavicle -3.26255e-14 7.55382e-15 0
lhumerus -48.5567 -12.2101 83.872
lradius 55.9897 -0 0
lwrist 21.2883 0 0
lhand -1.3478 3.60255 0.00623508
lfingers 7.12502 -0 0
lthumb 24.2926 32.023 -0.015816
rclavicle -3.26255e-14 7.55382e-15 0
rhumerus -39.932 11.9814 -64.4557
rradius 50.9723 -0 0
rwrist 8.62484 0 0
rhand -32.6061 -32.9275 0.112581
rfingers 7.12502 -0 0
rthumb -5.83721 -62.5607 0.137746
852
root 3.90081 16.3492 28.4104 -10.3289 8.93251 -0.446343
lfemur -20.9599 1.87324 -18.0718
ltibia 37.0644 -0 0
lfoot -7.46007 -15.4929 -0.0241715
ltoes 6.09101 -0 0
rfemur -40.364 -3.8504 2.57297
rtibia 94.7034 -0 0
rfoot 29.9064 18.329 0.806691
rtoes -7.33261 0 0
lowerback 5.98724 2.12656 -3.28222
upperback 1.69801 2.63589 0.0146577
thorax -1.72731 1.3311 1.74441
lowerneck -6.42824 -3.65208 2.46036
upperneck 8.66351 -5.32624 1.75868
head 3.95677 -2.46529 -0.137466
lclavicle -3.26255e-14 7.55382e-15 0
lhumerus -47.6215 -13.045 83.7349
lradius 56.1022 -0 0
lwrist 21.4114 0 0
lhand -0.591674 3.63626 0.00868597
lfingers 7.12502 -0 0
lthumb 25.0148 31.9335 -0.0220327
rclavicle -3.26255e-14 7.55382e-15 0
rhumerus -40.5547 10.775 -63.4884
rradius 51.0564 -0 0
rwrist 8.12263 0 0
rhand -30.5572 -32.7047 0.156996
rfingers 7.12502 -0 0
rthumb -3.86114 -62.2778 0.192075
853
root 3.91033 16.365 28.492 -10.6392 9.58459 -0.458944
lfemur -20.3606 2.27616 -18.1709
ltibia 36.977 -0 0
lfoot -7.37745 -16.3519 -0.0297547
ltoes 7.41809 -0 0
rfemur -41.9121 -4.03544 3.23132
rtibia 90.7042 -0 0
rfoot 27.7695 17.2252 0.994179
rtoes -8.35575 0 0
lowerback 6.55895 1.84056 -3.36963
upperback 1.90227 2.22923 -0.0759731
thorax -1.80574 1.12892 1.73794
lowerneck -6.46454 -3.61359 2.45835
upperneck 8.55052 -5.28578 1.89894
head 3.92867 -2.44055 -0.088407
lclavicle -3.26255e-14 7.55382e-15 0
lhumerus -46.6811 -13.8776 83.5833
lradius 56.2148 -0 0
lwrist 21.5345 0 0
lhand 0.164454 3.67 0.0106918
lfingers 7.12502 -0 0
lthumb 25.737 31.8439 -0.0271204
rclavicle -3.26255e-14 7.55382e-15 0
rhumerus -41.1957 9.5792 -62.5116
rradius 51.1405 -0 0
rwrist 7.62041 0 0
rhand -28.5081 -32.4804 0.193414
rfingers 7.12502 -0 0
rthumb -1.88482 -61.9932 0.236617
854
root 3.91985 16.3808 28.5735 -10.9502 10.2366 -0.475157
lfemur -19.7618 2.6801 -18.2658
ltibia 36.8895 -0 0
lfoot -7.29474 -17.2109 -0.0340984
ltoes 8.74518 -0 0
rfemur -43.4626 -4.20264 3.89459
rtibia 86.705 -0 0
rfoot 25.6292 16.1152 1.14035
rtoes -9.3789 0 0
lowerback 7.131 1.55545 -3.45987
upperback 2.10711 1.82289 -0.168031
thorax -1.88414 0.926732 1.73174
lowerneck -6.50085 -3.57509 2.45632
upperneck 8.43765 -5.24505 2.03911
head 3.90058 -2.41579 -0.0393606
lclavicle -3.26255e-14 7.55382e-15 0
lhumerus -45.7348 -14.7078 83.417
lradius 56.3274 -0 0
lwrist 21.6576 0 0
lhand 0.920583 3.70376 0.0122523
lfingers 7.12502 -0 0
lthumb 26.4592 31.7542 -0.0310784
rclavicle -3.26255e-14 7.55382e-15 0
rhumerus -41.8551 8.39436 -61.5245
rradius 51.2247 -0 0
rwrist 7.11819 0 0
rhand -26.4589 -32.2549 0.221789
rfingers 7.12502 -0 0
rthumb 0.0917017 -61.7072 0.271317
